<?xml version="1.0" encoding="UTF-8" standalone="no"?>
<!-- Generator: Adobe Illustrator 17.0.2, SVG Export Plug-In . SVG Version: 6.00 Build 0)  -->

<svg
   xmlns:dc="http://purl.org/dc/elements/1.1/"
   xmlns:cc="http://creativecommons.org/ns#"
   xmlns:rdf="http://www.w3.org/1999/02/22-rdf-syntax-ns#"
   xmlns:svg="http://www.w3.org/2000/svg"
   xmlns="http://www.w3.org/2000/svg"
   xmlns:sodipodi="http://sodipodi.sourceforge.net/DTD/sodipodi-0.dtd"
   xmlns:inkscape="http://www.inkscape.org/namespaces/inkscape"
   id="Layer_1"
   enable-background="new 0 0 595.28 841.89"
   xml:space="preserve"
   height="20.875002"
   viewBox="0 0 20.874999 20.875082"
   width="20.875"
   version="1.1"
   y="0px"
   x="0px"
   inkscape:version="0.91 r13725"
   sodipodi:docname="favicon.svg"
   inkscape:export-filename="favicon.png"
   inkscape:export-xdpi="2207.4299"
   inkscape:export-ydpi="2207.4299"><sodipodi:namedview
     pagecolor="#ffffff"
     bordercolor="#666666"
     borderopacity="1"
     objecttolerance="10"
     gridtolerance="10"
     guidetolerance="10"
     inkscape:pageopacity="0"
     inkscape:pageshadow="2"
     inkscape:window-width="1920"
     inkscape:window-height="1017"
     id="namedview12"
     showgrid="false"
     inkscape:zoom="32"
     inkscape:cx="0.8419291"
     inkscape:cy="14.57633"
     inkscape:window-x="0"
     inkscape:window-y="27"
     inkscape:window-maximized="1"
     inkscape:current-layer="Layer_1"
     fit-margin-top="0"
     fit-margin-left="0"
     fit-margin-right="0"
     fit-margin-bottom="0" /><metadata
     id="metadata30"><rdf:RDF><cc:Work
         rdf:about=""><dc:format>image/svg+xml</dc:format><dc:type
           rdf:resource="http://purl.org/dc/dcmitype/StillImage" /><dc:title /></cc:Work></rdf:RDF></metadata><defs
     id="defs28"><linearGradient
       id="linearGradient3012"
       y2="397.48001"
       gradientUnits="userSpaceOnUse"
       x2="307.26001"
       gradientTransform="matrix(0.32332081,0,0,0.32332082,-86.576142,-99.900873)"
       y1="546.45001"
       x1="307.26001"><stop
         id="stop8"
         stop-color="#000"
         stop-opacity="0"
         offset="0" /><stop
         id="stop10"
         stop-color="#000"
         offset="1" /></linearGradient></defs><rect
     style="opacity:1;fill:#ff8d4b;fill-opacity:1;stroke:none;stroke-width:6;stroke-linecap:round;stroke-linejoin:round;stroke-miterlimit:4;stroke-dasharray:none;stroke-dashoffset:0;stroke-opacity:0.43888891"
     id="rect3340"
     width="20.87508"
     height="20.875082"
     x="-0.00030517695"
     y="2.220446e-16" /><path
     style="clip-rule:evenodd;fill:url(#linearGradient3012);fill-rule:evenodd"
     d="M 11.189189,1.610007 C 10.213614,1.8882833 9.0890416,1.9334362 8.1937326,2.4002246 7.6080036,3.058733 7.1462266,3.6294762 6.7597866,4.3663158 6.5940256,4.919443 6.0674736,5.2522324 5.6188556,5.3248653 5.5337626,5.4254834 5.3267866,5.5448306 5.2086976,5.6373665 4.8897596,5.8291961 4.3398126,5.783829 4.0661146,6.0260398 c -0.218733,0.037316 -0.384074,0.3447375 -0.064813,0.4296892 0.405888,0.1326218 0.826906,0.1957596 1.312799,0.1739531 0.362653,0.00126 0.725308,0.00252 1.087961,0.00378 0.0091,0.7508898 0.995488,1.4844808 0.601947,2.0961284 -0.899131,0.4879397 -0.156323,1.7031845 0.384697,2.1280165 0.961771,0.138045 0.3138,1.396577 0.868599,1.957629 0.475927,0.626774 0.605677,1.298154 0.02516,1.906064 -1.036879,1.041892 -2.599636,1.216845 -3.906794,1.7682 -0.684431,0.176598 -1.336261,0.682408 -1.489243,1.323693 -0.151186,0.222256 -0.244295,0.358356 -0.339846,0.569954 -0.139279,0.154574 -0.167756,0.367713 -0.228516,0.59216 -0.15427,0.27903 -0.176439,0.53521 -0.280264,0.860962 -0.08075,0.298426 -0.186428,0.770256 -0.311536,1.039436 5.906273,0 11.8125454,0 17.7188184,0 0.04036,-0.52995 0.08073,-1.0599 0.121094,-1.58985 0.236188,-0.638386 1.406331,-0.561773 1.308599,-1.270917 0,-1.58353 0,-3.16706 0,-4.750591 -0.932047,0.08895 -1.871151,-0.111108 -2.773032,-0.305283 -0.506049,0.307838 -1.132883,-0.07591 -1.468311,0.52554 -1.075186,0.01233 -2.048119,0.66041 -3.123847,0.937006 -0.985202,-0.0344 -0.558986,-1.178626 -0.233633,-1.703955 0.590496,-0.674763 -0.02526,-1.849521 1.135397,-1.968167 0.808652,-0.371286 -0.265561,-1.7123293 0.190435,-1.8229841 0.247671,-0.00197 0.628735,-0.230614 0.845236,-0.3047528 0.245622,-0.366956 0.96384,0.6023135 1.576138,0.5648965 1.01482,0.3983918 2.18659,0.5685264 2.964518,1.3984994 0.400065,0.283487 1.074709,1.01739 0.887099,0.110533 0,-0.8312843 0,-1.6625683 0,-2.4938524 C 20.013515,7.7042244 18.911729,7.4289623 18.442191,6.4613665 18.024565,5.4503702 17.113879,5.0013095 16.081052,5.2663908 15.147461,4.9503901 15.776097,3.4491075 14.709301,3.256332 13.582971,2.7660931 12.456355,2.2244973 11.399106,1.6338798 L 11.189189,1.610007 Z"
     id="path12"
     inkscape:connector-curvature="0" /></svg>