<?xml version="1.0" encoding="UTF-8" standalone="no"?>
<!-- Generator: Adobe Illustrator 17.0.2, SVG Export Plug-In . SVG Version: 6.00 Build 0)  -->
<svg id="Layer_1" xmlns:rdf="http://www.w3.org/1999/02/22-rdf-syntax-ns#" xmlns="http://www.w3.org/2000/svg" enable-background="new 0 0 595.28 841.89" xml:space="preserve" height="68.89" viewBox="0 0 154.99999 68.890265" width="155" version="1.1" y="0px" x="0px" xmlns:cc="http://creativecommons.org/ns#" xmlns:xlink="http://www.w3.org/1999/xlink" xmlns:dc="http://purl.org/dc/elements/1.1/"><metadata id="metadata30"><rdf:RDF><cc:Work rdf:about=""><dc:format>image/svg+xml</dc:format><dc:type rdf:resource="http://purl.org/dc/dcmitype/StillImage"/><dc:title/></cc:Work></rdf:RDF></metadata><defs id="defs28"><linearGradient id="linearGradient3012" y2="397.48" gradientUnits="userSpaceOnUse" x2="307.26" gradientTransform="translate(-57.840009,-313.96331)" y1="546.45" x1="307.26"><stop id="stop8" stop-color="#000" stop-opacity="0" offset="0"/><stop id="stop10" stop-color="#000" offset="1"/></linearGradient></defs><g id="g3007" fill-rule="evenodd" clip-rule="evenodd" transform="matrix(0.32332081,0,0,0.32332081,-5.6785604e-6,0)"><path id="path3" d="m452.92,90.777c6.67,0,12.35,2.47,17.05,7.39,4.7,4.93,7.06,11.11,7.06,18.52v8.06c0,7.52-2.36,13.74-7.06,18.66-4.7,4.93-10.38,7.39-17.05,7.39h-15.38v-60.023h15.38zm0,62.27c7.37,0,13.63-2.65,18.77-7.95s7.71-12.09,7.71-20.37v-7.88c0-8.24-2.57-15.03-7.71-20.34-5.14-5.32-11.4-7.98-18.77-7.98h-17.76v64.52h17.76zm-130.84-0.01v-18.89c0.09,0,0.09-0.09,0.18-0.18l15.43-15.53,26.69,34.61h2.88l-27.94-36.23s28.31-28.3,28.32-28.29h-3.3l-42.26,42.28v-42.283h-2.2v64.51h2.2zm78.52,0.01v-31.34l24.41-33.18h-2.96l-22.51,30.92-22.54-30.92h-2.8l24.2,33.18v31.34h2.2z" fill="#010101"/><path id="path5" d="m98.97,147.4c-3.63,2.57-8.27,3.85-13.91,3.85-5.61,0-10.57-1.31-14.85-3.92-4.29-2.62-6.43-6.82-6.43-12.61h-1.98l-0.1,0.38c-0.14,6.36,2.11,11.01,6.75,13.97,4.63,2.96,10.18,4.44,16.61,4.44,6.23,0,11.41-1.45,15.56-4.35,4.14-2.91,6.21-6.88,6.21-11.93,0-4.95-1.82-8.78-5.44-11.48-3.63-2.7-9-4.98-16.11-6.85-7.34-1.86-12.41-3.99-15.22-6.39-2.81-2.39-4.21-5.39-4.21-9.01s1.69-6.72,5.09-9.3c3.39-2.58,8-3.87,13.81-3.87,5.62,0,10.19,1.57,13.71,4.69,3.53,3.12,5.29,7.06,5.29,11.82h2.02l0.09-0.25c0.12-5.43-1.81-9.87-5.77-13.33-3.97-3.45-9.08-5.19-15.34-5.19-6.2,0-11.3,1.42-15.29,4.25-4,2.83-5.99,6.62-5.99,11.37,0,4.79,1.69,8.43,5.09,10.92,3.39,2.5,8.74,4.72,16.06,6.67,7.28,1.99,12.4,4.18,15.36,6.57,2.95,2.39,4.43,5.58,4.43,9.57,0,4.09-1.82,7.41-5.44,9.98zm66.37-58.873h-2.39v31.58h-40.98v-31.583h-2.38v64.52h2.38v-30.68h40.98v30.68h2.39v-64.523zm-136.36,6.52,1.19-3.64h0.27l1.24,3.64,13.43,36.34h-29.61l13.48-36.34zm24.2,58h2.6l-24.02-64.52h-2.9l-15.93,42.86h-12.93v2.26h12.09l-7.21,19.4h2.6l7.14-19.4h31.38l7.18,19.4z" fill="#010101"/><path id="path12" d="m228.84,11.117-1.23,0.18v0.09l-0.1,0.01v0.08l-0.2,0.01v0.1h-0.1v0.1h-0.19v0.09h-0.1v0.1c-0.16-0.08-0.21,0.27-0.38,0.19v0.1l-0.3,0.1,0.01,0.09h-0.21v0.1l-0.19,0.01v0.09l-0.29,0.1v0.09c-0.48,0.01-0.85,0.21-1.38,0.22v0.09c-0.32,0.01-0.48,0.11-0.79,0.12v0.08c-0.27,0.01-0.35,0.11-0.59,0.11v0.1l-0.29,0.09v0.1h-0.09v0.1l-0.3,0.1,0.01,0.09-0.21,0.01v0.1h-0.09v0.09h-0.1l0.01,0.48h0.1c-0.05,0.09,0.19,0.33,0.3,0.28v0.08h0.2v0.1c0.47-0.01,0.72,0.17,1.19,0.16v0.1c0.37,0,0.6,0.09,0.99,0.08v0.09l5.21,0.02c0.74,1.79,1.09,3.99,2.29,5.14,1.1,1.06-3.13,2.53-1.61,3.99,0.37,0.35,1.21,3.21,1.32,3.31,0.81,0.78,2.14,0.83,2.53,1.21,0.2,0.18,0.39,4.27,0.71,4.57,0.11,0.11,1.95,3.63,1.96,3.93v0.42c-0.67,0.69-0.93,2.02-1.62,2.74-3.24,3.33-12.8,4.48-15.39,7.15-0.28,0.28-0.55,0.91-0.82,1.79-0.06,0.04-0.12,0.09-0.08,0.16h-0.08v0.08l-0.08,0.01v0.08h-0.08c0.06,0.11-0.38,0.56-0.32,0.67h-0.09l0.01,0.08h-0.09l0.01,0.17h-0.09l-0.07,0.25h-0.09l0.01,0.17h-0.09l-0.08,0.25h-0.08v0.17h-0.08v0.08h-0.08c0,0.12-0.09,0.3-0.08,0.33h-0.08v0.17h-0.08v0.25h-0.08l0.01,0.25h-0.09c0.01,0.2-0.07,0.28-0.07,0.5h-0.08v0.25h-0.08c0,0.19-0.08,0.23-0.08,0.42h-0.08c0,0.19-0.08,0.22-0.08,0.41h-0.08l0.01,0.25h-0.09l0.01,0.25h-0.09l0.01,0.34h-0.08c0,0.3-0.16,0.54-0.15,0.83h-0.09l0.01,0.33h-0.08v0.25h-0.08c0,0.37-0.16,0.57-0.15,0.91l-0.08,0.01c0.01,0.5-0.32,0.87-0.31,1.33h-0.08v0.16h-0.08v0.25h-0.08c0,0.4-0.24,0.7-0.23,1.17h-0.08v0.41h-0.08l0.01,0.42h-0.08c0,0.55-0.24,0.99-0.23,1.49l-0.08,0.01,0.01,0.33h-0.09l0.01,0.25h-0.09l0.01,0.25h-0.08v0.16h-0.08v0.25h-0.08v0.17h-0.08v0.25h-0.08c0.05,0.1-0.21,0.32-0.16,0.42h-0.08v0.17h-0.08v0.16h-0.08v0.17h-0.08c0,0.19-0.08,0.23-0.08,0.42h-0.08c0.01,0.49-0.31,0.89-0.31,1.41h-0.08c0.02,1.03-0.21,2.06-0.19,3.07h-0.09c0.01,0.29-0.03,0.84-0.14,1.08-0.01,0.02,0,0.37,0,0.41,0.02,0.75-0.05,1.4-0.04,2.16h-0.08c0.01,0.76-0.06,1.52-0.05,2.32,0.01,0.06,0.02,0.47,0.01,0.49-0.09,0.21-0.24,0.34-0.24,0.59h-0.08v0.17h-0.08c0.02,0.03-0.16,0.35-0.16,0.5h-0.08l0.01,0.16-0.09,0.01,0.01,0.16h-0.09l-0.08,0.25h-0.08c0.01,0.27-0.16,0.37-0.15,0.67h-0.09c0.01,0.37-0.07,0.62-0.06,0.99l-0.08,0.01,0.01,0.49h-0.09c0.01,0.31-0.16,0.48-0.15,0.75h-0.08c0,0.2-0.08,0.28-0.08,0.5h-0.08v0.25h-0.08l0.01,0.33-0.09,0.01c0.01,0.25-0.07,0.39-0.07,0.66h-0.08l0.01,0.25h-0.09l0.01,0.25h-0.09c0.01,0.25-0.16,0.33-0.15,0.58h-0.08v0.25h-0.08v0.25h-0.08c0,0.35-0.24,0.62-0.23,1h-0.08c0,0.49-0.32,0.85-0.31,1.33h-0.09l0.01,0.34h-0.08v0.25h-0.08c0,0.35-0.16,0.64-0.15,0.99h-0.08l0.01,0.42h-0.09c0.01,0.46-0.07,0.8-0.06,1.24h-0.08c0,0.33-0.07,0.57-0.07,0.92h-0.08v0.25h-0.08c0.01,0.36-0.07,0.62-0.06,0.99h-0.09l0.02,1.08h-0.08c0.01,0.93-0.14,1.82-0.12,2.74,0,0.07,0.02,0.55,0.01,0.58-0.09,0.19-0.16,0.42-0.15,0.66h-0.09l0.01,0.5h-0.08c0.01,0.41-0.07,0.73-0.06,1.16h-0.09l0.02,0.66-0.09,0.01c0.01,0.53-0.15,0.95-0.14,1.49h-0.08c0.01,0.31,0.07,3.37,0.06,3.39-0.08,0.17-0.16,0.21-0.16,0.42h-0.08c0,0.25-0.16,0.33-0.16,0.59h-0.08l0.01,0.41h-0.08v0.25h-0.08v0.33h-0.08l0.01,0.34h-0.09l0.01,0.25h-0.09c0.02,0.9-0.04,1.94-0.03,2.9h-0.08c0,0.19-0.08,0.22-0.08,0.41h-0.08v0.17h-0.08v0.17h-0.08c0,0.11-0.09,0.3-0.08,0.33h-0.08v0.17h-0.08l-0.08,0.25h-0.08v0.08h-0.08v0.17h-0.08v0.08l-0.08,0.01c0,0.3-0.24,0.44-0.24,0.74l-0.08,0.01c0.03,0.05-0.18,0.45-0.16,0.5h-0.08c0,0.19-0.08,0.22-0.08,0.41h-0.08c0.01,0.19-0.08,0.23-0.07,0.42h-0.09c0.01,0.25-0.16,0.33-0.15,0.58h-0.08c0.04,0.08-0.28,0.51-0.24,0.59h-0.09l0.01,0.17h-0.09l0.01,0.16h-0.09l0.01,0.17h-0.09l0.01,0.08-0.09,0.01,0.01,0.16h-0.09c0.01,0.12-0.09,0.31-0.07,0.33l-0.09,0.01c0.01,0-0.23,0.56-0.23,0.75h-0.08c0,0.31-0.04,0.65,0.09,0.91,0.02,0.02,0.02,0.05,0.01,0.08h0.08v0.08h0.08l0.01,0.16h0.08v0.09l0.08-0.01v0.09h0.09v0.08h0.08v0.16h0.09v0.17h0.08l0.05,2.48h0.08c0.01,0.73,0.1,1.34,0.12,2.07l0.08-0.01v0.25h0.09v0.25h0.08l0.01,0.16h0.08v0.17h0.09v0.16c0.09-0.05,0.1,0.05,0.17,0.08h0.16c0.26-0.01,0.39,0.07,0.66,0.07l0.01,0.58h0.09c-0.01,0.02,0.07,0.21,0.08,0.24,0.32,0.62,2.2,0.33,2.2,0.33,0.1-0.21,0.31-0.51,0.46-0.66,0.11-0.12,0.28-0.13,0.45-0.13,0.13-0.01,0.24,0.03,0.33,0.03s0.14,0.03,0.21,0.06c0.04,0.02,0.07,0.02,0.13,0.02,0.07,0,0.01,0.02,0.06,0.02s0.04-0.01,0.07,0.02h0.04l0.85,0.07v-0.17h0.08v-0.08l0.08-0.01v-0.16h0.08v-0.09h0.08v-0.16h0.08v-0.17h0.08l0.08-0.25h0.08v-0.09h0.09l-0.01-0.16h0.09l0.07-0.25,0.09-0.01-0.01-0.16h0.09l-0.01-0.17h0.09l-0.01-0.16,0.09-0.01-0.01-0.16h0.09v-0.09h0.08v-0.08h0.08v-0.17c0.09,0.05,0.21-0.08,0.16-0.17h0.08c-0.06-0.12,0.08-0.27,0.08-0.41h0.08c-0.01-0.45,0.07-0.79,0.06-1.25h0.08v-0.33h0.08v-0.17h0.08v-0.08h0.08l0.08-0.25h0.08v-0.09h0.08c0-0.21,0.08-0.25,0.16-0.41,0.01-0.02-0.02-1.05-0.02-1.16l0.09-0.01c-0.01-0.28-0.05-0.5,0.07-0.74,0.01-0.03,0.01-0.06-0.01-0.08l0.09-0.01-0.01-0.16h0.09l-0.01-0.17h0.09l-0.01-0.17h0.09l-0.02-1.07h-0.09c-0.01-0.68-0.1-1.25-0.11-1.9h-0.08c-0.01-0.53-0.1-0.95-0.11-1.49h-0.09v-0.33h-0.08l-0.01-0.25h-0.08v-0.16h-0.09v-0.25h-0.08c-0.01-0.41-0.1-0.93-0.11-1.4h0.08v-0.34h0.08l-0.01-0.33h0.09l-0.01-0.17h0.09c-0.01-0.24,0.07-0.34,0.07-0.58h0.08v-0.25h0.08l-0.04-2.07h0.09c-0.01-0.29,0.07-0.48,0.07-0.75h0.08v-0.16h0.08c-0.01-0.22,0.08-0.3,0.07-0.5h0.09c-0.07-0.13,0.07-0.28,0.07-0.42h0.08v-0.25h0.08v-0.33h0.08v-0.17h0.08l-0.01-0.33h0.09l-0.01-0.42h0.08c0-0.28,0.08-0.51,0.07-0.74l0.08-0.01v-0.16h0.08v-0.17h0.08v-0.17h0.08v-0.16h0.08c-0.01-0.03,0.08-0.22,0.08-0.34h0.08v-0.08h0.08c0-0.12,0.1-0.31,0.08-0.34h0.08v-0.16h0.08v-0.17h0.08v-0.25h0.08c-0.01-0.45,0.4-0.91,0.39-1.33h0.09c-0.01-0.27,0.16-0.37,0.15-0.67h0.08v-0.17h0.08c0-0.19,0.08-0.22,0.08-0.41h0.08v-0.25h0.08c-0.02-0.03,0.08-0.22,0.08-0.34h0.08v-0.16h0.08v-0.09h0.08c0-0.12,0.09-0.3,0.08-0.33h0.08v-0.17h0.08v-0.25h0.08v-0.17h0.08v-0.08h0.08v-0.17h0.08v-0.25h0.08v-0.16h0.08c0-0.12,0.09-0.31,0.07-0.34h0.09l-0.01-0.25h0.09c-0.01-0.19,0.07-0.22,0.07-0.41l0.08-0.01v-0.16h0.08v-0.17h0.08v-0.17h0.08v-0.08h0.09l0.07-0.25h0.09l-0.01-0.17h0.09l-0.01-0.16,0.09-0.01-0.01-0.24,0.08-0.01v-0.16h0.08v-0.17h0.08v-0.17h0.08v-0.33h0.08c-0.01-0.39,0.15-0.7,0.15-1.08h0.08l-0.01-0.41,0.09-0.01-0.01-0.24,0.08-0.01v-0.33h0.08c-0.01-0.45,0.07-0.81,0.06-1.24h0.09l-0.01-0.25h0.08v-0.03c0.17,0.36,0.28,0.59,0.31,0.61,0.24,0.23,0.35,1.97,0.67,2.28l0.01,1.04c0.03,1.2,0.25,6.19-0.09,6.88-0.12,0.26-0.62,2.48-0.37,2.72,0.17,0.16,1.23-0.23,1.47-0.23,1.42-0.03,2.59-0.88,3.96-0.91h0.42c0.65-0.67,1.4-1.66,2.06-2.33l0.42-0.01c0.91,0.88-0.79,12.22-0.84,12.32-0.51,1.06-1.22,2.11-1.83,2.74l0.01,0.83c0.02,0.9,0.01,1.65,0.46,2.08,0.26,0.25,0.94,0.29,1.26,0.6l0.01,0.42c-1.02,1.05-1.61,11.23-0.61,13.14,0.41,0.39,0.33,6.67,0.33,6.67,1.54,1.48,1.55,19.83,1.19,20.2-0.32,0.32-0.6,1.55-0.59,2.3,0.02,0.99-0.4,3.81-0.77,4.19l0.05,2.5,0.14,8.33c0,0.09-0.05,0.16,0.01,0.21,0.08,0.09,1.78,6.31,1.79,6.85l0.01,0.63-1.85,1.91,0.02,1.25c0.02,1.05-0.02,2.84,0.48,3.32l0.85,0.82c0.11,0.11,0.33,0.3,0.22,0.42-2.34,2.4-4.16,5.34-6.57,7.82-0.78,0.8-3.4,2.02-4.97,3.63-0.87,0.9-3.77,0.92-4.58,1.75-0.35,0.36-0.61,1.26-0.82,1.48-0.07,0.08-0.69,1.59-0.38,1.88,4.75,4.56,7.93,2.43,11.6,4.17,1.24,0.59,6.25-3.67,6.84-4.28,0.83-0.85,7.71,1.4,10.46-1.44,1.67-1.71-1.35-8.36-0.78-8.95,0.17-0.18,0.22-0.09,0.22-0.09s-0.02-0.06-0.02-0.33c-0.01-0.71,1.35-6.55,1.32-8.57,0-0.08,0.05-0.15-0.01-0.21-0.38-0.37-1.48-1.66-0.89-2.9,3.06-6.35,1.86-13.69,1.72-21.71l-0.02-1.05c0.51-0.52,0.09-1.57,0.6-2.09,2.99-3.09,1.51-27.23,3.26-29.04,0.26-0.26,0.8,0.15,0.85,0.2,0.41,0.4,0.26,3.07,0.27,3.95l0.03,1.25c1.87,1.8,2.81,5.34,2.88,9.13l0.02,1.04c0.01,0.61,1.46,3.86,1.75,4.14,0.17,0.16-0.22,8.8,0.8,9.78l0.1,5.63c0.04,2.8,0.17,16.15-0.96,17.32-0.34,0.35,0.03,1.02-0.18,1.46-0.48,1,0.71,5.04,0.73,6.24,0,0.09,0.06,0.15,0.01,0.21-0.52,0.54-1.72,2.78-0.98,4.19,0.48,0.91,1.62,1.35,2.13,1.84,0.46,0.44-1.36,3.51-0.58,4.25,0.59,0.57,0.37,3.52,2.67,7.18,0.23,0.38-0.03,3.05,1.33,4.35,1.38,1.33,5.16-1.13,6.27-1.15,2.75-0.05,5.72,0.69,6.91-0.54l-0.01-0.62-0.05-2.71c-1.77-1.7-3.94-8.09-4.34-8.47-0.08-0.08,0.03-2.85-0.05-2.92-0.08-0.08-1.49-1.86-0.88-2.49,0.26-0.27,2.63-3.96,2.85-4.43,0.36-0.74-0.64-2.05-0.87-2.27-0.29-0.28-0.52-5.4-0.54-6.46l-0.03-1.87c0.54-0.56,0.66-1.74,1.01-2.11,0.05-0.04-0.12-4.53-0.08-4.58,0.38-0.38,0.13-4.82,0.11-5.84-0.05-2.71-0.51-10.08,0.64-11.27,0.43-0.43-0.62,0.07-0.63-0.4l-0.1-5.42c1.26-1.3,0.76-22.21,1.49-22.96,0.48-0.49-0.36-8.34-0.78-8.74l-0.1-5.63c-0.04-2.4,6.27-1.79,6.67-2.2l-0.03-1.46c-0.03-2.01-1.39-2.05-2.15-3.51-0.59-1.13,0.49-7.72,0.47-8.97l-0.01-0.84c0.06-0.06,2.24,0.03,2.3-0.04,0.8-0.82,7.62-2.11,7.92-2.43,0.3-0.3-0.42-1.23-0.44-1.24-1.37-1.32-2.09-2.83-3.21-3.91-1.13-1.08-3.12-11.81-4.42-13.05-0.5-0.49,0.26-1.6-0.25-2.08-0.69-0.67-2.87-10.76-3.97-11.82l0.42-5.58c0.3,0.12,0.79-0.87,0.93-1.01,1.5-1.54,4.36-1.97,6.5-3.08,2.52-1.31,5.9-3.8,8.39-5.52,0.42-0.28,2.08,0.04,3.8-1.73,1.68-1.74,2.76-3.54,4.26-5.08,0.45-0.46,1.91-2.09,1.57-3.05-1.83-5.16-9.5-6.72-13.02-10.09-0.41-0.4-3.59-1.15-4.81-2.31-2.42-2.33-6.15-3.47-9.05-5.32-1.71-1.09-2.79-4.64-5.25-6.21-0.85-0.55-3.53,0.52-4.56-0.13-2.14-1.37-0.84-4.66-2.88-5.63-1.78-0.85-9.1-3.98-10.25-5.09-0.13-0.12-0.44,0.02-0.53-0.15-0.18-0.34-1.79-0.33-2.2-0.11-1.34,0.69-7.31,1.47-7.83,2.01-0.42,0.44-2.89,3.45-3.34,3.91-0.29,0.3,0.3,0.12,0.01,0.42-0.97,1-1.75,3.07-2.65,4.01-0.23,0.23-0.47,0.41-0.7,0.61zm29.33,9.92c0.11,0.05,0.68,0.82,0.7,0.84,1.01,0.97,10.12,3.36,11.4,4.6,2.64,2.53,6.46,4.55,9.14,7.13,0.28,0.26-0.18,0.62-0.19,0.63-1.05,1.08-2.84,1.01-3.33,1.52l-0.63,0.06-0.42,0.22h-0.15c-0.1,0.1-1.93,0.09-2.26,0.09-0.75,0.02-5.9-0.75-6.09-0.93-0.32-0.31-1.82,0.23-1.93,0.34l-0.37,0.11-1.36-0.12c-0.08,0.05-0.15,0.2-0.21,0.26-0.45,0.46-1,0.81-1.44,1.27-0.08,0.08-3.07-0.02-3.15,0.06-0.38,0.38-6.28,3.19-7.08,2.41-0.32-0.3-0.72-0.89-1.07-1.23l-0.01-0.62c-0.01-0.37,2.12-5.37,2.21-5.46,0.68-0.71-0.32-2.22,0.36-2.93,0.26-0.26,2.45-1.03,2.71-1.3,0.31-0.32,0.06-0.91,0.39-1.25,0.45-0.46-0.41-2.64-0.96-4.2l0.93,0.13-0.01-0.09h0.3v-0.1c0.24-0.01,1.18-0.4,1.18-0.4l0.1-0.01,0.09-0.09,0.29-0.1v-0.1h0.21l-0.01-0.09h0.2v-0.1h0.1v-0.1c0.1,0.04,0.25-0.09,0.19-0.19h0.1c-0.01-0.02,0.04-0.15,0.07-0.26z" fill="url(#linearGradient3012)"/></g></svg>
